<svg width="1440" height="115" viewBox="0 0 1440 115" fill="none" xmlns="http://www.w3.org/2000/svg">
<g filter="url(#filter0_d_1468_8860)">
<path d="M27.831 56.5584C26.8119 67.7461 28.3623 79.5838 23.8985 89.9166C20.8992 96.8702 9.20895 106.31 1.64879 106.194C-5.91136 106.078 -20.2324 95.9176 -20.3725 89.9523C-20.9267 65.5472 -18.9325 41.1476 -14.4085 16.98C-13.3739 11.3937 0.995988 3.12655 8.53094 3.51932C16.0659 3.91209 28.0249 12.8763 29.2981 19.0992C31.7236 31.1417 28.0307 43.9776 26.8892 56.5093L27.831 56.5584Z" fill="#1E2C4F"/>
<path d="M71.624 54.2479C70.6049 65.4355 72.1552 77.2732 67.6915 87.6061C64.6922 94.5596 53.0019 103.999 45.4418 103.883C37.8816 103.767 23.5606 93.607 23.4205 87.6417C22.8663 63.2366 24.8605 38.837 29.3844 14.6695C30.4191 9.08315 44.789 0.816 52.3239 1.20877C59.8589 1.60154 71.8179 10.5657 73.0911 16.7887C75.5166 28.8311 71.8237 41.6671 70.6821 54.1988L71.624 54.2479Z" fill="#1E2C4F"/>
<path d="M111.343 54.2479C110.324 65.4355 111.874 77.2732 107.41 87.6061C104.411 94.5596 92.7207 103.999 85.1605 103.883C77.6004 103.767 63.2793 93.607 63.1392 87.6417C62.5851 63.2366 64.5792 38.837 69.1032 14.6695C70.1378 9.08315 84.5077 0.816 92.0427 1.20877C99.5776 1.60154 111.537 10.5657 112.81 16.7887C115.235 28.8311 111.542 41.6671 110.401 54.1988L111.343 54.2479Z" fill="#1E2C4F"/>
<path d="M151.062 54.2479C150.042 65.4355 151.593 77.2732 147.129 87.6061C144.13 94.5596 132.439 103.999 124.879 103.883C117.319 103.767 102.998 93.607 102.858 87.6417C102.304 63.2366 104.298 38.837 108.822 14.6695C109.857 9.08315 124.226 0.816 131.761 1.20877C139.296 1.60154 151.255 10.5657 152.529 16.7887C154.954 28.8311 151.261 41.6671 150.12 54.1988L151.062 54.2479Z" fill="#1E2C4F"/>
<path d="M190.78 54.2479C189.761 65.4355 191.311 77.2732 186.848 87.6061C183.848 94.5596 172.158 103.999 164.598 103.883C157.038 103.767 142.717 93.607 142.577 87.6417C142.023 63.2366 144.017 38.837 148.541 14.6695C149.575 9.08315 163.945 0.816 171.48 1.20877C179.015 1.60154 190.974 10.5657 192.247 16.7887C194.673 28.8311 190.98 41.6671 189.838 54.1988L190.78 54.2479Z" fill="#1E2C4F"/>
<path d="M230.499 54.2479C229.48 65.4355 231.03 77.2732 226.566 87.6061C223.567 94.5596 211.877 103.999 204.317 103.883C196.757 103.767 182.436 93.607 182.295 87.6417C181.741 63.2366 183.735 38.837 188.259 14.6695C189.294 9.08315 203.664 0.816 211.199 1.20877C218.734 1.60154 230.693 10.5657 231.966 16.7887C234.392 28.8311 230.699 41.6671 229.557 54.1988L230.499 54.2479Z" fill="#1E2C4F"/>
<path d="M270.218 54.2479C269.199 65.4355 270.749 77.2732 266.285 87.6061C263.286 94.5596 251.596 103.999 244.036 103.883C236.475 103.767 222.154 93.607 222.014 87.6417C221.46 63.2366 223.454 38.837 227.978 14.6695C229.013 9.08315 243.383 0.816 250.918 1.20877C258.453 1.60154 270.412 10.5657 271.685 16.7887C274.11 28.8311 270.417 41.6671 269.276 54.1988L270.218 54.2479Z" fill="#1E2C4F"/>
<path d="M309.937 54.2479C308.917 65.4355 310.468 77.2732 306.004 87.6061C303.005 94.5596 291.314 103.999 283.754 103.883C276.194 103.767 261.873 93.607 261.733 87.6417C261.179 63.2366 263.173 38.837 267.697 14.6695C268.732 9.08315 283.101 0.816 290.636 1.20877C298.171 1.60154 310.13 10.5657 311.404 16.7887C313.829 28.8311 310.136 41.6671 308.995 54.1988L309.937 54.2479Z" fill="#1E2C4F"/>
<path d="M349.655 54.2479C348.636 65.4355 350.186 77.2732 345.723 87.6061C342.723 94.5596 331.033 103.999 323.473 103.883C315.913 103.767 301.592 93.607 301.452 87.6417C300.898 63.2366 302.892 38.837 307.416 14.6695C308.45 9.08315 322.82 0.816 330.355 1.20877C337.89 1.60154 349.849 10.5657 351.122 16.7887C353.548 28.8311 349.855 41.6671 348.713 54.1988L349.655 54.2479Z" fill="#1E2C4F"/>
<path d="M389.374 54.2479C388.355 65.4355 389.905 77.2732 385.441 87.6061C382.442 94.5596 370.752 103.999 363.192 103.883C355.632 103.767 341.311 93.607 341.17 87.6417C340.616 63.2366 342.61 38.837 347.134 14.6695C348.169 9.08315 362.539 0.816 370.074 1.20877C377.609 1.60154 389.568 10.5657 390.841 16.7887C393.267 28.8311 389.574 41.6671 388.432 54.1988L389.374 54.2479Z" fill="#1E2C4F"/>
<path d="M429.093 54.2479C428.074 65.4355 429.624 77.2732 425.16 87.6061C422.161 94.5596 410.471 103.999 402.911 103.883C395.35 103.767 381.029 93.607 380.889 87.6417C380.335 63.2366 382.329 38.837 386.853 14.6695C387.888 9.08315 402.258 0.816 409.793 1.20877C417.328 1.60154 429.287 10.5657 430.56 16.7887C432.985 28.8311 429.292 41.6671 428.151 54.1988L429.093 54.2479Z" fill="#1E2C4F"/>
<path d="M468.812 54.2479C467.792 65.4355 469.343 77.2732 464.879 87.6061C461.88 94.5596 450.189 103.999 442.629 103.883C435.069 103.767 420.748 93.607 420.608 87.6417C420.054 63.2366 422.048 38.837 426.572 14.6695C427.607 9.08315 441.976 0.816 449.511 1.20877C457.046 1.60154 469.005 10.5657 470.279 16.7887C472.704 28.8311 469.011 41.6671 467.87 54.1988L468.812 54.2479Z" fill="#1E2C4F"/>
<path d="M508.53 54.2479C507.511 65.4355 509.061 77.2732 504.598 87.6061C501.598 94.5596 489.908 103.999 482.348 103.883C474.788 103.767 460.467 93.607 460.327 87.6417C459.773 63.2366 461.767 38.837 466.291 14.6695C467.325 9.08315 481.695 0.816 489.23 1.20877C496.765 1.60154 508.724 10.5657 509.997 16.7887C512.423 28.8311 508.73 41.6671 507.588 54.1988L508.53 54.2479Z" fill="#1E2C4F"/>
<path d="M548.249 54.2479C547.23 65.4355 548.78 77.2732 544.316 87.6061C541.317 94.5596 529.627 103.999 522.067 103.883C514.507 103.767 500.186 93.607 500.045 87.6417C499.491 63.2366 501.485 38.837 506.009 14.6695C507.044 9.08315 521.414 0.816 528.949 1.20877C536.484 1.60154 548.443 10.5657 549.716 16.7887C552.142 28.8311 548.449 41.6671 547.307 54.1988L548.249 54.2479Z" fill="#1E2C4F"/>
<path d="M587.968 54.2479C586.949 65.4355 588.499 77.2732 584.035 87.6061C581.036 94.5596 569.346 103.999 561.786 103.883C554.225 103.767 539.904 93.607 539.764 87.6417C539.21 63.2366 541.204 38.837 545.728 14.6695C546.763 9.08315 561.133 0.816 568.668 1.20877C576.203 1.60154 588.162 10.5657 589.435 16.7887C591.86 28.8311 588.167 41.6671 587.026 54.1988L587.968 54.2479Z" fill="#1E2C4F"/>
<path d="M627.69 54.2479C626.671 65.4355 628.222 77.2732 623.758 87.6061C620.759 94.5596 609.068 103.999 601.508 103.883C593.948 103.767 579.627 93.607 579.487 87.6417C578.933 63.2366 580.927 38.837 585.451 14.6695C586.485 9.08315 600.855 0.816 608.39 1.20877C615.925 1.60154 627.884 10.5657 629.157 16.7887C631.583 28.8311 627.89 41.6671 626.749 54.1988L627.69 54.2479Z" fill="#1E2C4F"/>
<path d="M667.409 54.2479C666.39 65.4355 667.94 77.2732 663.477 87.6061C660.477 94.5596 648.787 103.999 641.227 103.883C633.667 103.767 619.346 93.607 619.206 87.6417C618.651 63.2366 620.646 38.837 625.17 14.6695C626.204 9.08315 640.574 0.816 648.109 1.20877C655.644 1.60154 667.603 10.5657 668.876 16.7887C671.302 28.8311 667.609 41.6671 666.467 54.1988L667.409 54.2479Z" fill="#1E2C4F"/>
<path d="M707.128 54.2479C706.109 65.4355 707.659 77.2732 703.195 87.6061C700.196 94.5596 688.506 103.999 680.946 103.883C673.386 103.767 659.064 93.607 658.924 87.6417C658.37 63.2366 660.364 38.837 664.888 14.6695C665.923 9.08315 680.293 0.816 687.828 1.20877C695.363 1.60154 707.322 10.5657 708.595 16.7887C711.02 28.8311 707.328 41.6671 706.186 54.1988L707.128 54.2479Z" fill="#1E2C4F"/>
<path d="M746.847 54.2479C745.828 65.4355 747.378 77.2732 742.914 87.6061C739.915 94.5596 728.225 103.999 720.664 103.883C713.104 103.767 698.783 93.607 698.643 87.6417C698.089 63.2366 700.083 38.837 704.607 14.6695C705.642 9.08315 720.012 0.816 727.547 1.20877C735.082 1.60154 747.041 10.5657 748.314 16.7887C750.739 28.8311 747.046 41.6671 745.905 54.1988L746.847 54.2479Z" fill="#1E2C4F"/>
<path d="M786.565 54.2479C785.546 65.4355 787.097 77.2732 782.633 87.6061C779.634 94.5596 767.943 103.999 760.383 103.883C752.823 103.767 738.502 93.607 738.362 87.6417C737.808 63.2366 739.802 38.837 744.326 14.6695C745.36 9.08315 759.73 0.816 767.265 1.20877C774.8 1.60154 786.759 10.5657 788.032 16.7887C790.458 28.8311 786.765 41.6671 785.624 54.1988L786.565 54.2479Z" fill="#1E2C4F"/>
<path d="M826.284 54.2479C825.265 65.4355 826.815 77.2732 822.352 87.6061C819.352 94.5596 807.662 103.999 800.102 103.883C792.542 103.767 778.221 93.607 778.081 87.6417C777.526 63.2366 779.521 38.837 784.045 14.6695C785.079 9.08315 799.449 0.816 806.984 1.20877C814.519 1.60154 826.478 10.5657 827.751 16.7887C830.177 28.8311 826.484 41.6671 825.342 54.1988L826.284 54.2479Z" fill="#1E2C4F"/>
<path d="M866.003 54.2479C864.984 65.4355 866.534 77.2732 862.07 87.6061C859.071 94.5596 847.381 103.999 839.821 103.883C832.261 103.767 817.939 93.607 817.799 87.6417C817.245 63.2366 819.239 38.837 823.763 14.6695C824.798 9.08315 839.168 0.816 846.703 1.20877C854.238 1.60154 866.197 10.5657 867.47 16.7887C869.895 28.8311 866.203 41.6671 865.061 54.1988L866.003 54.2479Z" fill="#1E2C4F"/>
<path d="M905.722 54.2479C904.703 65.4355 906.253 77.2732 901.789 87.6061C898.79 94.5596 887.1 103.999 879.539 103.883C871.979 103.767 857.658 93.607 857.518 87.6417C856.964 63.2366 858.958 38.837 863.482 14.6695C864.517 9.08315 878.887 0.816 886.422 1.20877C893.957 1.60154 905.916 10.5657 907.189 16.7887C909.614 28.8311 905.921 41.6671 904.78 54.1988L905.722 54.2479Z" fill="#1E2C4F"/>
<path d="M945.44 54.2479C944.421 65.4355 945.972 77.2732 941.508 87.6061C938.509 94.5596 926.818 103.999 919.258 103.883C911.698 103.767 897.377 93.607 897.237 87.6417C896.683 63.2366 898.677 38.837 903.201 14.6695C904.235 9.08315 918.605 0.816 926.14 1.20877C933.675 1.60154 945.634 10.5657 946.907 16.7887C949.333 28.8311 945.64 41.6671 944.499 54.1988L945.44 54.2479Z" fill="#1E2C4F"/>
<path d="M985.159 54.2479C984.14 65.4355 985.69 77.2732 981.227 87.6061C978.227 94.5596 966.537 103.999 958.977 103.883C951.417 103.767 937.096 93.607 936.956 87.6417C936.401 63.2366 938.396 38.837 942.92 14.6695C943.954 9.08315 958.324 0.816 965.859 1.20877C973.394 1.60154 985.353 10.5657 986.626 16.7887C989.052 28.8311 985.359 41.6671 984.217 54.1988L985.159 54.2479Z" fill="#1E2C4F"/>
<path d="M1024.88 54.2479C1023.86 65.4355 1025.41 77.2732 1020.95 87.6061C1017.95 94.5596 1006.26 103.999 998.696 103.883C991.136 103.767 976.814 93.607 976.674 87.6417C976.12 63.2366 978.114 38.837 982.638 14.6695C983.673 9.08315 998.043 0.816 1005.58 1.20877C1013.11 1.60154 1025.07 10.5657 1026.34 16.7887C1028.77 28.8311 1025.08 41.6671 1023.94 54.1988L1024.88 54.2479Z" fill="#1E2C4F"/>
<path d="M1064.6 54.2479C1063.58 65.4355 1065.13 77.2732 1060.66 87.6061C1057.66 94.5596 1045.97 103.999 1038.41 103.883C1030.85 103.767 1016.53 93.607 1016.39 87.6417C1015.84 63.2366 1017.83 38.837 1022.36 14.6695C1023.39 9.08315 1037.76 0.816 1045.3 1.20877C1052.83 1.60154 1064.79 10.5657 1066.06 16.7887C1068.49 28.8311 1064.8 41.6671 1063.65 54.1988L1064.6 54.2479Z" fill="#1E2C4F"/>
<path d="M1104.32 54.2479C1103.3 65.4355 1104.85 77.2732 1100.38 87.6061C1097.38 94.5596 1085.69 103.999 1078.13 103.883C1070.57 103.767 1056.25 93.607 1056.11 87.6417C1055.56 63.2366 1057.55 38.837 1062.08 14.6695C1063.11 9.08315 1077.48 0.816 1085.02 1.20877C1092.55 1.60154 1104.51 10.5657 1105.78 16.7887C1108.21 28.8311 1104.52 41.6671 1103.37 54.1988L1104.32 54.2479Z" fill="#1E2C4F"/>
<path d="M1144.04 54.2479C1143.02 65.4355 1144.57 77.2732 1140.11 87.6061C1137.11 94.5596 1125.42 103.999 1117.86 103.883C1110.3 103.767 1095.97 93.607 1095.83 87.6417C1095.28 63.2366 1097.27 38.837 1101.8 14.6695C1102.83 9.08315 1117.2 0.816 1124.74 1.20877C1132.27 1.60154 1144.23 10.5657 1145.51 16.7887C1147.93 28.8311 1144.24 41.6671 1143.1 54.1988L1144.04 54.2479Z" fill="#1E2C4F"/>
<path d="M1183.76 54.2479C1182.74 65.4355 1184.29 77.2732 1179.82 87.6061C1176.83 94.5596 1165.13 103.999 1157.57 103.883C1150.01 103.767 1135.69 93.607 1135.55 87.6417C1135 63.2366 1136.99 38.837 1141.52 14.6695C1142.55 9.08315 1156.92 0.816 1164.46 1.20877C1171.99 1.60154 1183.95 10.5657 1185.22 16.7887C1187.65 28.8311 1183.96 41.6671 1182.81 54.1988L1183.76 54.2479Z" fill="#1E2C4F"/>
<path d="M1223.48 54.2479C1222.46 65.4355 1224.01 77.2732 1219.54 87.6061C1216.54 94.5596 1204.85 103.999 1197.29 103.883C1189.73 103.767 1175.41 93.607 1175.27 87.6417C1174.72 63.2366 1176.71 38.837 1181.24 14.6695C1182.27 9.08315 1196.64 0.816 1204.18 1.20877C1211.71 1.60154 1223.67 10.5657 1224.94 16.7887C1227.37 28.8311 1223.68 41.6671 1222.53 54.1988L1223.48 54.2479Z" fill="#1E2C4F"/>
<path d="M1263.19 54.2479C1262.18 65.4355 1263.73 77.2732 1259.26 87.6061C1256.26 94.5596 1244.57 103.999 1237.01 103.883C1229.45 103.767 1215.13 93.607 1214.99 87.6417C1214.44 63.2366 1216.43 38.837 1220.95 14.6695C1221.99 9.08315 1236.36 0.816 1243.89 1.20877C1251.43 1.60154 1263.39 10.5657 1264.66 16.7887C1267.09 28.8311 1263.39 41.6671 1262.25 54.1988L1263.19 54.2479Z" fill="#1E2C4F"/>
<path d="M1302.91 54.2479C1301.89 65.4355 1303.44 77.2732 1298.98 87.6061C1295.98 94.5596 1284.29 103.999 1276.73 103.883C1269.17 103.767 1254.85 93.607 1254.71 87.6417C1254.16 63.2366 1256.15 38.837 1260.67 14.6695C1261.71 9.08315 1276.08 0.816 1283.61 1.20877C1291.15 1.60154 1303.11 10.5657 1304.38 16.7887C1306.81 28.8311 1303.11 41.6671 1301.97 54.1988L1302.91 54.2479Z" fill="#1E2C4F"/>
<path d="M1342.63 54.2479C1341.61 65.4355 1343.16 77.2732 1338.7 87.6061C1335.7 94.5596 1324.01 103.999 1316.45 103.883C1308.89 103.767 1294.56 93.607 1294.42 87.6417C1293.87 63.2366 1295.86 38.837 1300.39 14.6695C1301.42 9.08315 1315.79 0.816 1323.33 1.20877C1330.86 1.60154 1342.82 10.5657 1344.09 16.7887C1346.52 28.8311 1342.83 41.6671 1341.69 54.1988L1342.63 54.2479Z" fill="#1E2C4F"/>
<path d="M1382.35 54.2479C1381.33 65.4355 1382.88 77.2732 1378.42 87.6061C1375.42 94.5596 1363.73 103.999 1356.17 103.883C1348.61 103.767 1334.29 93.607 1334.15 87.6417C1333.59 63.2366 1335.59 38.837 1340.11 14.6695C1341.15 9.08315 1355.52 0.816 1363.05 1.20877C1370.59 1.60154 1382.54 10.5657 1383.82 16.7887C1386.24 28.8311 1382.55 41.6671 1381.41 54.1988L1382.35 54.2479Z" fill="#1E2C4F"/>
<path d="M1422.07 54.2479C1421.05 65.4355 1422.6 77.2732 1418.14 87.6061C1415.14 94.5596 1403.45 103.999 1395.89 103.883C1388.33 103.767 1374.01 93.607 1373.87 87.6417C1373.31 63.2366 1375.31 38.837 1379.83 14.6695C1380.86 9.08315 1395.23 0.816 1402.77 1.20877C1410.3 1.60154 1422.26 10.5657 1423.54 16.7887C1425.96 28.8311 1422.27 41.6671 1421.13 54.1988L1422.07 54.2479Z" fill="#1E2C4F"/>
<path d="M1461.79 54.2479C1460.77 65.4355 1462.32 77.2732 1457.86 87.6061C1454.86 94.5596 1443.17 103.999 1435.61 103.883C1428.05 103.767 1413.72 93.607 1413.58 87.6417C1413.03 63.2366 1415.02 38.837 1419.55 14.6695C1420.58 9.08315 1434.95 0.816 1442.49 1.20877C1450.02 1.60154 1461.98 10.5657 1463.26 16.7887C1465.68 28.8311 1461.99 41.6671 1460.85 54.1988L1461.79 54.2479Z" fill="#1E2C4F"/>
</g>
<defs>
<filter id="filter0_d_1468_8860" x="-24.4629" y="1.19525" width="1492.53" height="113" filterUnits="userSpaceOnUse" color-interpolation-filters="sRGB">
<feFlood flood-opacity="0" result="BackgroundImageFix"/>
<feColorMatrix in="SourceAlpha" type="matrix" values="0 0 0 0 0 0 0 0 0 0 0 0 0 0 0 0 0 0 127 0" result="hardAlpha"/>
<feOffset dy="4"/>
<feGaussianBlur stdDeviation="2"/>
<feComposite in2="hardAlpha" operator="out"/>
<feColorMatrix type="matrix" values="0 0 0 0 0 0 0 0 0 0 0 0 0 0 0 0 0 0 0.1 0"/>
<feBlend mode="normal" in2="BackgroundImageFix" result="effect1_dropShadow_1468_8860"/>
<feBlend mode="normal" in="SourceGraphic" in2="effect1_dropShadow_1468_8860" result="shape"/>
</filter>
</defs>
</svg>
